<?xml version="1.0" encoding="utf-8"?>
<!-- Generator: Adobe Illustrator 16.0.0, SVG Export Plug-In . SVG Version: 6.00 Build 0)  -->
<!DOCTYPE svg PUBLIC "-//W3C//DTD SVG 1.1//EN" "http://www.w3.org/Graphics/SVG/1.1/DTD/svg11.dtd">
<svg version="1.1" id="Capa_1" xmlns="http://www.w3.org/2000/svg" xmlns:xlink="http://www.w3.org/1999/xlink" x="0px" y="0px"
	 width="256.923px" height="61.08px" viewBox="0 0 256.923 61.08" enable-background="new 0 0 256.923 61.08" xml:space="preserve">
<g>
	<g id="quadrifoglio">
		<path fill-rule="evenodd" clip-rule="evenodd" d="M205.056,35.175c-0.149,0.101-0.479,0.25-0.729,0.48
			c-0.351,0.33-0.7,0.59-1.05,0.81c-2.49,1.551-4.94,0.48-7.41-0.88c-0.9-0.5-1.82-0.93-2.99-1.529
			c0.979-2.11,1.77-3.921,2.65-5.681c0.989-1.97,2.35-2.68,4.05-2.25c1.7,0.431,2.43,1.63,2.42,3.91v0.68
			c0.26,0.57,0.78,0.931,1.32,1.261C204.417,32.655,205.636,33.205,205.056,35.175z"/>
		<path fill-rule="evenodd" clip-rule="evenodd" d="M192.872,35.112c2.316,1.094,4.459,2.006,6.504,3.106
			c1.4,0.753,1.876,2.2,1.49,3.604c-0.406,1.468-1.422,2.365-3.086,2.353c-1.091-0.005-1.891,0.182-2.756,0.95
			c-1.254,1.116-2.96,1.019-4.146,0.096c-1.087-0.846-1.556-2.331-0.94-3.822C190.79,39.335,191.819,37.342,192.872,35.112z"/>
		<path fill-rule="evenodd" clip-rule="evenodd" d="M192.211,33.481c-2.264-0.986-4.252-1.78-6.176-2.716
			c-1.682-0.818-2.346-2.102-2.078-3.582c0.293-1.616,1.486-2.657,3.455-2.6c0.971,0.027,1.504-0.274,2.17-0.876
			c1.367-1.228,2.775-1.295,4.092-0.433c1.384,0.907,1.835,2.356,1.121,4.222C194.063,29.414,193.174,31.271,192.211,33.481z"/>
	</g>
	<g id="Da_Marcolino">
		<path d="M43.426,18.865c-0.16-3.49-1.02-6.61-2.57-9.36c-1.93-3.399-4.73-5.93-8.42-7.569c-3.68-1.65-7.89-2.24-12.62-1.79
			c-2.12,0.2-4.15,0.649-6.07,1.359c-1.93,0.71-3.71,1.66-5.33,2.83c-1.64,1.181-3.06,2.561-4.28,4.15
			c-1.61,2.07-2.76,4.32-3.46,6.75c-0.69,2.42-0.85,4.8-0.49,7.12c0.17,1.05,0.48,1.979,0.92,2.79c0.44,0.81,0.93,1.42,1.48,1.85
			c0.55,0.42,1.08,0.74,1.58,0.96c0.49,0.21,0.97,0.33,1.42,0.36c0.25,0.03,0.49-0.05,0.7-0.24c0.21-0.18,0.33-0.4,0.36-0.66
			c0-0.189-0.03-0.37-0.1-0.53c-0.08-0.149-0.19-0.279-0.35-0.38c-0.15-0.1-0.31-0.149-0.48-0.149c-0.09-0.03-0.21-0.061-0.36-0.08
			c-0.16-0.03-0.41-0.13-0.75-0.3s-0.66-0.4-0.95-0.681c-0.3-0.29-0.59-0.71-0.87-1.279c-0.29-0.57-0.49-1.221-0.6-1.96
			c-0.34-2.07-0.2-4.181,0.42-6.341c0.63-2.149,1.65-4.149,3.06-5.989c1.7-2.19,3.79-3.931,6.25-5.24c2.46-1.3,5.16-2.101,8.07-2.38
			c4.34-0.4,8.18,0.13,11.52,1.6c3.34,1.46,5.89,3.73,7.65,6.83c2.83,4.99,3.13,11.13,0.89,18.42c-3.06,1.16-6.11,2.69-9.16,4.59
			c-3.04,1.9-5.73,3.891-8.05,5.96c-2.32,2.07-4.43,4.17-6.31,6.301c-1.88,2.119-3.38,4.04-4.48,5.76
			c-1.11,1.72-1.79,3.109-2.04,4.189c-0.29,1.11-0.16,1.94,0.38,2.511c0.57,0.649,1.46,0.979,2.68,0.979h0.42
			c1.73-0.12,3.76-0.729,6.1-1.85s4.79-2.74,7.35-4.851c2.56-2.12,4.8-4.46,6.69-7.04c3.77-5.17,6.48-10.27,8.12-15.319
			c0.05-0.11,0.08-0.23,0.08-0.34C43.046,26.016,43.577,22.355,43.426,18.865z M32.017,44.355c-1.84,2.52-4.01,4.79-6.5,6.81
			c-2.5,2.01-4.79,3.51-6.89,4.48c-2.09,0.979-3.85,1.51-5.27,1.6c-0.79,0.03-1.28-0.06-1.48-0.25c-0.12-0.32,0.04-0.96,0.47-1.92
			c0.65-1.5,1.79-3.28,3.42-5.34c1.62-2.061,3.59-4.21,5.88-6.47c2.3-2.25,5-4.46,8.12-6.61c3.11-2.16,6.26-3.9,9.43-5.24
			C37.577,35.705,35.187,40.016,32.017,44.355z M20.856,7.065c-0.24-0.271-0.55-0.391-0.93-0.351c-0.38,0.051-0.65,0.25-0.79,0.62
			c-6.51,16.2-11.34,32.92-14.49,50.16c-0.05,0.4,0.07,0.7,0.36,0.9c0.3,0.2,0.63,0.229,0.98,0.1c0.36-0.12,0.58-0.39,0.66-0.78
			c3.09-17.02,7.88-33.569,14.36-49.649C21.146,7.665,21.106,7.335,20.856,7.065z M62.966,34.615c-0.21-0.17-0.31-0.26-0.31-0.26
			s-0.14,0.02-0.41,0.06c-0.27,0.05-0.49,0.17-0.66,0.36c-0.28,0.37-0.62,0.78-1.01,1.22c-0.4,0.44-0.89,0.92-1.47,1.44
			c-0.58,0.529-1.14,0.96-1.68,1.279c-0.54,0.32-1.09,0.57-1.66,0.75c-0.56,0.16-1.05,0.11-1.44-0.18
			c-0.37-0.34-0.46-1.09-0.28-2.25c0.19-1.16,0.59-2.55,1.21-4.17c0.48-1.02,0.92-2.03,1.32-3.02c0.11-0.23,0.11-0.471,0-0.721
			c-0.11-0.26-0.29-0.439-0.53-0.56c-0.24-0.11-0.48-0.12-0.72-0.021c-0.24,0.101-0.44,0.261-0.58,0.49v0.09
			c-0.28-0.46-0.61-0.8-0.97-1.02c-0.66-0.4-1.38-0.471-2.17-0.221c-0.91,0.261-1.93,0.98-3.06,2.171
			c-1.13,1.189-2.1,2.55-2.91,4.09c-0.81,1.529-1.2,2.85-1.17,3.95c0.03,1.56,0.74,2.539,2.12,2.939c1.7,0.45,3.5-0.479,5.4-2.81
			c0.03,1.34,0.47,2.25,1.32,2.77c0.56,0.34,1.19,0.51,1.87,0.51c0.68,0,1.4-0.17,2.17-0.51c0.76-0.34,1.44-0.74,2.04-1.2
			c0.59-0.449,1.19-0.97,1.78-1.569c0.59-0.601,1.03-1.051,1.3-1.36c0.26-0.31,0.5-0.6,0.7-0.85c0.17-0.23,0.23-0.471,0.19-0.75
			C63.307,35.005,63.187,34.775,62.966,34.615z M53.437,32.056c-1.08,2.13-2.19,3.899-3.34,5.3c-1.15,1.399-2.13,1.99-2.95,1.76
			c-0.46-0.14-0.68-0.48-0.68-1.02c-0.03-1.271,0.66-2.9,2.06-4.891c1.4-1.979,2.63-3.13,3.68-3.45c0.11-0.02,0.21-0.04,0.29-0.04
			c0.09,0,0.16,0.03,0.21,0.091c0.34,0.189,0.57,0.619,0.68,1.27c0.06,0.17,0.14,0.33,0.26,0.47
			C53.557,31.745,53.486,31.915,53.437,32.056z M137.697,16.735c-0.311-0.39-0.69-0.65-1.13-0.78c-0.44-0.13-0.931-0.1-1.48,0.08
			c-0.56,0.19-1.1,0.41-1.64,0.69c-0.54,0.27-1.141,0.659-1.811,1.18c-0.66,0.53-1.24,1-1.72,1.41c-0.48,0.41-1.021,0.93-1.63,1.55
			c-0.61,0.63-1.06,1.09-1.34,1.39c-0.28,0.29-0.62,0.65-1.02,1.08c-0.17,0.2-0.3,0.33-0.38,0.38
			c-4.28,4.54-8.03,9.381-11.26,14.511c1.07-4.771,1.78-10,2.12-15.7c0-0.17,0.02-0.561,0.07-1.17c0.04-0.61,0.07-1.141,0.1-1.59
			c0.03-0.46,0.06-1.061,0.09-1.811c0.02-0.75,0.02-1.43,0-2.02c-0.03-0.601-0.08-1.25-0.15-1.96c-0.07-0.71-0.19-1.33-0.34-1.87
			c-0.16-0.54-0.35-1.05-0.58-1.53c-0.22-0.49-0.52-0.87-0.89-1.15c-0.37-0.29-0.78-0.47-1.23-0.56c-1.39-0.22-3.3,0.83-5.74,3.15
			c-1.89,1.79-3.81,4.29-5.73,7.489c-3.09,5.16-6.36,12.38-9.82,21.66c-0.06,0.11-0.1,0.23-0.15,0.36
			c-0.04,0.13-0.09,0.27-0.15,0.42c-0.05,0.16-0.1,0.28-0.12,0.37c0.14-1.05,0.22-1.69,0.25-1.92c1.16-8.65,1.72-16.931,1.66-24.851
			c-0.03-3.68-0.2-6.649-0.51-8.89c0-0.021-0.03-0.25-0.09-0.68c-0.05-0.42-0.09-0.69-0.1-0.811c-0.02-0.109-0.05-0.35-0.11-0.72
			c-0.05-0.37-0.12-0.64-0.19-0.811c-0.07-0.17-0.15-0.399-0.23-0.68c-0.09-0.28-0.19-0.52-0.32-0.72s-0.26-0.39-0.41-0.561
			c-0.51-0.619-1.11-0.989-1.8-1.1c-0.7-0.11-1.38-0.03-2.06,0.25c-0.68,0.29-1.4,0.72-2.17,1.3c-0.76,0.58-1.46,1.21-2.1,1.87
			c-0.64,0.67-1.28,1.38-1.91,2.15c-0.64,0.77-1.15,1.42-1.53,1.96c-0.39,0.54-0.72,1.029-1,1.49c-0.91,1.359-1.71,2.789-2.4,4.289
			c-0.7,1.511-1.25,3.15-1.66,4.921c-0.41,1.77-0.56,3.409-0.45,4.909c0.12,1.511,0.67,2.9,1.66,4.19c0.99,1.3,2.42,2.27,4.29,2.92
			c0.4,0.14,0.73,0.08,1-0.17c0.27-0.26,0.38-0.57,0.34-0.94c-0.04-0.369-0.25-0.609-0.61-0.72c-1.48-0.51-2.62-1.25-3.43-2.21
			c-0.8-0.97-1.26-2.05-1.36-3.26c-0.1-1.2-0.02-2.45,0.22-3.74c0.24-1.29,0.67-2.62,1.29-3.979c0.63-1.36,1.25-2.58,1.87-3.66
			c0.63-1.08,1.28-2.101,1.96-3.061c0.31-0.43,0.55-0.76,0.72-1c0.17-0.239,0.47-0.63,0.91-1.17s0.82-0.99,1.15-1.34
			c0.33-0.36,0.73-0.75,1.21-1.19c0.48-0.439,0.92-0.779,1.32-1.029c0.39-0.24,0.82-0.42,1.27-0.55
			c0.46-0.131,0.88-0.131,1.28-0.021c0.25,0.061,0.47,0.25,0.66,0.57c0.18,0.33,0.31,0.64,0.38,0.92c0.07,0.28,0.15,0.68,0.23,1.189
			c0,0.11,0.02,0.181,0.04,0.21c0.43,2.301,0.67,4.94,0.73,7.921c0.05,2.97,0.01,5.63-0.13,7.949c-0.23,6.75-0.81,13.351-1.74,19.79
			c-0.37,2.63-0.7,4.78-0.98,6.42c-0.28,1.65-0.74,3.62-1.38,5.92c-0.64,2.29-1.37,4.32-2.19,6.08c-0.17,0.37-0.14,0.69,0.11,0.96
			c0.24,0.271,0.54,0.391,0.91,0.36c0.37-0.03,0.65-0.229,0.85-0.6c0.31-0.62,0.62-1.29,0.91-2.021c0.3-0.72,0.57-1.41,0.81-2.06
			c0.24-0.66,0.5-1.37,0.77-2.15s0.51-1.49,0.72-2.13s0.45-1.35,0.7-2.15c0.25-0.79,0.5-1.479,0.72-2.08
			c2.81-7.859,5.31-14.21,7.52-19.06c0.68-1.42,1.24-2.57,1.66-3.45s1-2,1.74-3.359c0.74-1.36,1.42-2.511,2.04-3.45
			c0.63-0.931,1.38-1.92,2.25-2.97c0.88-1.051,1.79-1.98,2.72-2.771c0.31-0.25,0.53-0.43,0.64-0.53c0.11-0.1,0.32-0.26,0.62-0.489
			c0.29-0.23,0.51-0.37,0.63-0.421c0.13-0.06,0.31-0.14,0.56-0.239c0.24-0.101,0.43-0.13,0.57-0.08c0.14,0.04,0.3,0.1,0.47,0.189
			c0.17,0.08,0.32,0.25,0.44,0.48c0.13,0.25,0.24,0.54,0.32,0.88c0.34,1.25,0.53,2.73,0.56,4.44c0.02,1.72-0.02,3.22-0.13,4.489
			c-0.46,9.561-2,17.801-4.63,24.721c-0.15,0.369-0.1,0.689,0.14,0.96c0.24,0.27,0.55,0.39,0.92,0.34c0.37-0.04,0.64-0.23,0.81-0.57
			c3.31-6.92,7.91-13.689,13.81-20.3c2.88-3.23,5.45-5.64,7.69-7.23c0.05-0.029,0.17-0.109,0.33-0.26
			c0.18-0.14,0.34-0.27,0.489-0.38c0.16-0.11,0.351-0.24,0.58-0.38c0.221-0.14,0.42-0.26,0.59-0.34c0.17-0.09,0.341-0.15,0.511-0.2
			c0.17-0.04,0.31-0.04,0.43-0.021c-0.03,0.03-0.03,0.12,0,0.261c0.03,0.14,0.07,0.359,0.12,0.66c0.06,0.3,0.09,0.529,0.09,0.699
			c0.03,1.761-0.15,3.601-0.53,5.53s-0.989,4.26-1.83,6.98c-0.84,2.72-1.37,4.51-1.59,5.359c-0.77,2.98-1.35,5.351-1.76,7.11
			c-0.42,1.75-0.83,3.95-1.24,6.59s-0.63,5.06-0.66,7.28c0,0.14,0.03,0.26,0.091,0.38c0.17,0.479,0.52,0.71,1.06,0.68
			c0.57,0,0.85-0.29,0.85-0.85c0-1.42,0.091-2.94,0.28-4.55c0.18-1.62,0.35-2.971,0.51-4.051c0.15-1.069,0.46-2.63,0.931-4.659
			c0.47-2.021,0.77-3.351,0.92-3.971c0.14-0.63,0.54-2.17,1.21-4.62c0.66-2.449,1.02-3.81,1.08-4.06
			c1.27-4.85,2.069-8.21,2.38-10.08c0-0.09,0.01-0.2,0.04-0.35c0.2-0.761,0.3-1.7,0.3-2.82
			C138.376,18.275,138.146,17.396,137.697,16.735z M158.836,35.005c-0.02,0.11-0.05,0.221-0.07,0.33c0.04-0.069,0.07-0.14,0.11-0.21
			C158.876,35.085,158.856,35.045,158.836,35.005z M220.886,22.186c-0.189,0.09-0.359,0.16-0.49,0.21
			c-0.119,0.06-0.26,0.12-0.399,0.18c-0.141,0.05-0.28,0.11-0.4,0.16c-0.13,0.06-0.22,0.09-0.279,0.09
			c-0.25,0.11-0.44,0.29-0.57,0.53s-0.141,0.49-0.021,0.75c0.141,0.45,0.45,0.68,0.931,0.68c0.12,0,0.21-0.03,0.3-0.09
			c0.229-0.061,0.79-0.271,1.7-0.64L220.886,22.186z"/>
		<path d="M192.237,34.465c-1.07,2.311-1.99,4.45-3.061,6.521c-0.67,1.3-1.899,1.79-3.34,1.56c-1.43-0.22-2.72-1.04-2.66-2.47
			c0.08-1.84-0.72-3.05-1.83-4.12c-0.29,0.26-0.609,0.55-0.979,0.87c-1.03,0.91-2.04,1.72-3.03,2.44c-1,0.729-2.11,1.38-3.34,1.96
			c-1.23,0.58-2.311,0.87-3.25,0.87c-0.88,0-1.63-0.24-2.25-0.721c-0.771-0.59-1.22-1.42-1.36-2.47c-0.109-0.82-0.02-1.75,0.29-2.79
			c0.32-1.03,0.75-2.02,1.3-2.97c0.551-0.95,0.99-1.681,1.32-2.17c0.32-0.5,0.63-0.92,0.91-1.261c1.14-1.439,2.18-2,3.149-1.659
			c0.851,0.29,1.28,1.149,1.311,2.6c0,0.28-0.09,0.52-0.271,0.72c-0.189,0.2-0.42,0.3-0.699,0.3c-0.2,0-0.37-0.04-0.521-0.13
			c-0.13-0.09-0.26-0.199-0.35-0.34c-0.101-0.14-0.16-0.31-0.16-0.51c0-0.23-0.01-0.42-0.04-0.6c-0.31,0.229-0.6,0.51-0.89,0.859
			c-0.79,1.04-1.58,2.34-2.381,3.891c-0.789,1.539-1.13,2.81-1.02,3.81c0.06,0.51,0.27,0.89,0.64,1.14
			c0.45,0.37,1.091,0.45,1.91,0.221c0.83-0.23,1.7-0.61,2.641-1.15c0.93-0.54,1.899-1.2,2.909-1.98c1-0.779,1.91-1.539,2.721-2.27
			c0.6-0.56,1.13-1.07,1.58-1.55c0.06-0.09,0.119-0.181,0.189-0.271c1.12-1.479,2.25-1.91,3.94-1.26
			C187.787,32.375,189.876,33.405,192.237,34.465z"/>
		<path d="M168.537,28.335c-0.17-0.22-0.4-0.33-0.681-0.359c-1.729-0.23-3.359,0.33-4.899,1.68c-1.5,1.31-2.86,3.13-4.08,5.47
			c-0.04,0.07-0.07,0.141-0.11,0.21c0.021-0.109,0.051-0.22,0.07-0.33c0.69-3.34,1.52-6.949,2.48-10.819
			c0.06-0.28,0.01-0.54-0.131-0.761c-0.14-0.229-0.34-0.38-0.59-0.449c-0.26-0.07-0.51-0.04-0.75,0.1
			c-0.24,0.15-0.39,0.35-0.439,0.6c-1.181,4.69-2.07,8.57-2.69,11.641c-0.18,0.22-0.38,0.45-0.59,0.68
			c-0.39,0.44-0.88,0.92-1.46,1.44c-0.58,0.529-1.14,0.96-1.68,1.279c-0.54,0.32-1.091,0.57-1.66,0.75
			c-0.57,0.16-1.04,0.11-1.44-0.18c-0.37-0.34-0.46-1.09-0.28-2.25c0.19-1.16,0.591-2.55,1.211-4.17
			c0.479-1.02,0.92-2.03,1.319-3.02c0.12-0.23,0.12-0.471,0-0.721c-0.109-0.26-0.29-0.439-0.53-0.56
			c-0.239-0.11-0.479-0.12-0.72-0.021c-0.25,0.101-0.439,0.261-0.58,0.49v0.09c-0.279-0.46-0.609-0.8-0.97-1.02
			c-0.66-0.4-1.38-0.471-2.17-0.221c-0.91,0.261-1.93,0.98-3.061,2.171c-1.14,1.189-2.109,2.55-2.909,4.09
			c-0.811,1.529-1.2,2.85-1.17,3.95c0.029,1.56,0.729,2.539,2.119,2.939c1.7,0.45,3.5-0.479,5.4-2.81c0.03,1.34,0.47,2.25,1.32,2.77
			c0.56,0.34,1.189,0.51,1.87,0.51c0.68,0,1.399-0.17,2.159-0.51c0.771-0.34,1.45-0.74,2.04-1.2c0.391-0.29,0.771-0.609,1.15-0.96
			c-0.41,2.641-0.47,4.271-0.17,4.88c0.17,0.37,0.47,0.551,0.89,0.551c0.03,0,0.061-0.011,0.09-0.04
			c0.45-0.03,0.73-0.271,0.851-0.721c0.71-2.47,1.55-4.729,2.53-6.79c0.97-2.06,2.119-3.739,3.439-5.06s2.63-1.9,3.93-1.73
			c0.261,0.03,0.49-0.04,0.721-0.21c0.229-0.17,0.35-0.39,0.39-0.659C168.777,28.785,168.707,28.545,168.537,28.335z
			 M148.997,32.056c-1.08,2.13-2.19,3.899-3.34,5.3c-1.15,1.399-2.13,1.99-2.96,1.76c-0.45-0.14-0.67-0.48-0.67-1.02
			c-0.03-1.271,0.649-2.9,2.06-4.891c1.4-1.979,2.62-3.13,3.67-3.45c0.12-0.02,0.21-0.04,0.3-0.04s0.16,0.03,0.21,0.091
			c0.34,0.189,0.57,0.619,0.681,1.27c0.06,0.17,0.14,0.33,0.26,0.47C149.117,31.745,149.046,31.915,148.997,32.056z"/>
		<path d="M256.707,28.505c-0.17-0.21-0.39-0.34-0.66-0.39c-0.27-0.04-0.52,0.03-0.74,0.2c-1.479,1.189-3.51,1.29-6.12,0.3
			c-0.46-0.46-1.02-0.69-1.699-0.69c-0.99,0-1.94,0.421-2.851,1.24c-0.91,0.82-1.609,1.75-2.13,2.78c-0.5,1.04-0.8,1.97-0.89,2.79
			c0,0.06-0.011,0.189-0.04,0.38c-0.221,1.88-0.11,3.36,0.33,4.44c-0.09,0.029-0.17,0.09-0.24,0.159
			c-0.29,0.261-0.61,0.471-0.98,0.66c-0.369,0.181-0.64,0.221-0.81,0.101c-0.31-0.221-0.58-1.57-0.8-4.03
			c-0.09-0.88-0.17-1.54-0.24-1.96c-0.07-0.43-0.18-0.92-0.32-1.49c-0.14-0.57-0.34-0.979-0.609-1.24
			c-0.271-0.25-0.601-0.409-1-0.46c-0.801-0.12-1.7,0.29-2.721,1.23c-1.02,0.93-2.47,2.54-4.34,4.81c-0.31,0.4-0.56,0.721-0.76,0.98
			c0.71-3.41,1.51-6.84,2.42-10.3c0.061-0.25,0.021-0.5-0.13-0.75c-0.14-0.23-0.34-0.391-0.61-0.44c-0.27-0.06-0.52-0.01-0.739,0.13
			c-0.23,0.141-0.391,0.34-0.471,0.59c-0.43,1.721-0.819,3.28-1.16,4.69c-0.029,0.02-0.05,0.05-0.069,0.08
			c-1.561,2.149-3.271,4.03-5.141,5.63c-1.869,1.61-3.27,2.15-4.21,1.64c-0.199-0.25-0.279-0.819-0.25-1.7
			c0.021-0.88,0.23-2.119,0.61-3.72c0.38-1.6,0.87-3.229,1.47-4.87c0.061-0.199,0.07-0.38,0.04-0.54
			c-0.029-0.149-0.1-0.3-0.21-0.439c-0.109-0.141-0.26-0.24-0.43-0.3c-0.25-0.091-0.5-0.07-0.74,0.04
			c-0.24,0.119-0.399,0.3-0.49,0.56c-0.39,1.07-0.75,2.15-1.06,3.23c-0.311,1.079-0.61,2.31-0.89,3.699
			c-0.29,1.391-0.351,2.61-0.19,3.66c0.06,0.43,0.16,0.811,0.31,1.12c-0.04,0.06-0.079,0.12-0.13,0.18c-0.17,0.24-0.5,0.62-1,1.15
			c-0.489,0.52-1.01,0.979-1.55,1.38c-0.54,0.39-1.2,0.72-2,0.96c-0.79,0.24-1.59,0.29-2.37,0.15c-2.899-0.57-4.51-3.17-4.85-7.79
			c0.08-0.061,0.16-0.13,0.21-0.21c0.71-1.11,1.51-2.38,2.399-3.83c0.9-1.45,2.2-3.69,3.94-6.73c1.72-3.029,3.2-5.819,4.43-8.38
			c1.24-2.55,2.24-5.1,3.021-7.66c0.78-2.55,0.97-4.43,0.57-5.649c-0.311-0.91-0.891-1.511-1.74-1.79
			c-0.05-0.03-0.11-0.04-0.17-0.04c-1.101-0.17-2.261,0.26-3.46,1.29c-1.21,1.04-2.341,2.47-3.42,4.279
			c-1.08,1.811-2.101,3.87-3.061,6.171c-0.96,2.3-1.8,4.659-2.51,7.079c-0.71,2.431-1.24,4.73-1.61,6.921
			c-0.26,1.47-0.43,2.859-0.529,4.17c1.1,0.68,2.319,1.229,1.739,3.199c-0.149,0.101-0.479,0.25-0.729,0.48
			c-0.351,0.33-0.7,0.59-1.05,0.81c0.109,1.5,0.359,2.841,0.739,4.04c1.021,3.19,2.91,5.051,5.69,5.591
			c0.45,0.09,0.91,0.13,1.36,0.13c0.909,0,1.8-0.181,2.68-0.551c0.88-0.369,1.609-0.779,2.189-1.239
			c0.58-0.45,1.131-0.971,1.65-1.551c0.53-0.579,0.88-1.01,1.07-1.279c0.01-0.01,0.01-0.021,0.02-0.03
			c0.311,0.1,0.641,0.14,0.98,0.14c0.939,0,1.97-0.33,3.1-1c1.14-0.67,2.21-1.529,3.23-2.59c0.529-0.55,0.989-1.06,1.399-1.51
			c-0.479,2.2-0.76,3.73-0.85,4.59c-0.03,0.37,0.12,0.67,0.43,0.891c0.311,0.229,0.63,0.26,0.97,0.109c0.341-0.16,0.75-0.49,1.23-1
			c0.49-0.51,1.22-1.38,2.21-2.59c2.75-3.35,4.47-5.12,5.15-5.32c0.189,0.34,0.38,1.44,0.55,3.32c0.109,1.04,0.2,1.84,0.27,2.38
			c0.08,0.54,0.23,1.13,0.471,1.76c0.239,0.641,0.56,1.091,0.96,1.341c0.399,0.279,0.829,0.43,1.31,0.43c1,0,1.97-0.46,2.94-1.36
			c0.02-0.02,0.04-0.04,0.06-0.069c0.25,0.17,0.53,0.31,0.83,0.409c0.31,0.11,0.63,0.17,0.97,0.17c0.601,0,1.17-0.17,1.71-0.51
			c0.931-0.569,1.71-1.51,2.351-2.81c0.64-1.311,1.02-2.37,1.13-3.19c0.22-1.79,0.27-3.18,0.13-4.17c2.58,0.59,4.7,0.23,6.37-1.11
			c0.2-0.17,0.31-0.39,0.34-0.659C256.947,28.955,256.876,28.715,256.707,28.505z M205.796,28.105c0.49-2.87,1.23-5.79,2.24-8.771
			c1-2.979,2.06-5.569,3.16-7.79c1.1-2.21,2.22-4.02,3.359-5.439c1.13-1.42,2.09-2.13,2.88-2.13h0.091
			c0.199,0.12,0.34,0.3,0.43,0.55c0.39,1.22-0.07,3.51-1.39,6.859c-1.311,3.341-2.95,6.82-4.9,10.421c-1.96,3.6-4.1,7.25-6.42,10.93
			C205.327,31.266,205.516,29.715,205.796,28.105z M248.077,34.945c-0.03,0.32-0.15,0.76-0.36,1.32c-0.21,0.569-0.52,1.18-0.93,1.83
			c-0.41,0.659-0.82,1.119-1.22,1.409c-0.36,0.19-0.7,0.24-1.021,0.12c-0.56-0.189-0.91-0.74-1.03-1.63
			c-0.13-0.899-0.109-1.78,0.061-2.66c0-0.2,0.01-0.34,0.04-0.43c0.06-0.91,0.479-1.93,1.27-3.06c0.8-1.131,1.59-1.771,2.391-1.921
			c0.22,0.15,0.46,0.261,0.72,0.351C248.367,30.976,248.386,32.535,248.077,34.945z"/>
	</g>
</g>
</svg>
